# xmcd
#
# Track frame offsets: 
#        150
#        23167
#        42791
#        62682
#        78316
#        95804
#        114587
#        132388
#        151519
#        168922
#        186894
#        204616
#        222541
#        240406
#        254797
#        268996
#        289508
#
# Disc length: 4071 seconds
#
# Revision: 0
# Processed by: cddbd v1.5.2PL0 Copyright (c) Steve Scherf et al.
# Submitted via: ExactAudioCopy v0.99pb4
#
DISCID=f60fe511
DTITLE=Hélène Segara - Les 50 Plus Belle Chansons - Disque 2
DYEAR=2007
DGENRE=Chanson
TTITLE0=Elle, Tu L'Aimes
TTITLE1=Il Attend La Pluie
TTITLE2=Vivo Per Lei
TTITLE3=Loin Du Froid De Décembre
TTITLE4=Vivre
TTITLE5=Dans Nos Souvenirs
TTITLE6=Encore Une Fois
TTITLE7=Petite Vie
TTITLE8=Femme
TTITLE9=Ailleurs Comme Ici
TTITLE10=Je Te Retiens
TTITLE11=Je Rêve
TTITLE12=Tu Peux Tout Emporter
TTITLE13=Je N'Oublie Que Toi
TTITLE14=Auprès De Ceux Que J'Aimais
TTITLE15=Je Te Perdrai
TTITLE16=Petites Douleurs
EXTD=
EXTT0=
EXTT1=
EXTT2=
EXTT3=
EXTT4=
EXTT5=
EXTT6=
EXTT7=
EXTT8=
EXTT9=
EXTT10=
EXTT11=
EXTT12=
EXTT13=
EXTT14=
EXTT15=
EXTT16=
PLAYORDER=
